<?xml version="1.0" standalone="no"?>
<!DOCTYPE svg PUBLIC "-//W3C//DTD SVG 20010904//EN"
 "http://www.w3.org/TR/2001/REC-SVG-20010904/DTD/svg10.dtd">
<svg version="1.0" xmlns="http://www.w3.org/2000/svg"
 width="1024.000000pt" height="1024.000000pt" viewBox="0 0 1024.000000 1024.000000"
 preserveAspectRatio="xMidYMid meet">

<g transform="translate(0.000000,1024.000000) scale(0.100000,-0.100000)"
fill="#000000" stroke="none">
<path d="M0 5120 l0 -5120 5120 0 5120 0 0 5120 0 5120 -5120 0 -5120 0 0
-5120z m8841 4063 c13 -27 17 -29 26 -14 8 12 14 13 23 5 17 -16 9 -47 -15
-59 -11 -5 -34 -20 -50 -31 -40 -29 -131 -74 -148 -74 -19 0 -57 72 -57 109 0
39 50 98 94 109 49 14 108 -7 127 -45z m314 -128 c67 -57 214 -296 266 -431
l9 -25 -88 7 c-171 12 -390 -59 -517 -168 -112 -95 -236 -266 -338 -465 -61
-118 -130 -286 -148 -358 -6 -25 -15 -47 -19 -50 -3 -2 -33 7 -66 20 -85 34
-167 41 -259 20 -118 -26 -180 -82 -423 -385 -237 -294 -496 -604 -701 -839
-141 -161 -239 -277 -307 -366 -25 -33 -99 -121 -164 -195 -64 -74 -152 -178
-195 -230 -43 -52 -106 -126 -140 -165 -33 -38 -74 -86 -90 -106 -17 -20 -86
-106 -154 -190 -69 -85 -178 -216 -243 -291 -65 -76 -130 -156 -144 -178 l-27
-41 37 -38 c46 -47 149 -96 248 -118 105 -23 382 -23 507 1 188 35 347 96 698
266 123 60 223 106 223 102 0 -3 -20 -31 -44 -61 -24 -31 -78 -110 -121 -176
-97 -150 -257 -356 -322 -415 -27 -25 -94 -80 -149 -122 -54 -42 -119 -93
-144 -112 -25 -19 -189 -132 -365 -250 -289 -193 -553 -377 -628 -436 -34 -27
-281 -397 -577 -865 -216 -341 -242 -381 -359 -553 -170 -249 -259 -383 -347
-524 l-79 -127 -25 24 c-14 13 -81 58 -150 101 -69 42 -157 98 -196 125 -39
26 -114 73 -165 105 -91 55 -189 125 -429 309 -227 174 -492 428 -702 674
-129 150 -290 374 -277 385 2 2 34 -1 70 -6 57 -9 71 -7 93 8 15 9 23 20 19
25 -14 13 -253 89 -398 125 -76 19 -234 66 -350 104 -215 70 -571 170 -606
170 -41 0 -6 19 89 50 53 17 124 46 157 64 33 18 105 52 160 75 117 50 315
149 800 401 335 174 508 263 1005 518 256 131 404 214 439 245 12 12 41 58 63
102 22 43 73 138 112 210 40 71 99 186 131 255 65 141 148 308 192 390 32 59
73 162 73 184 0 8 -39 29 -90 50 -118 47 -151 69 -231 153 -74 76 -129 175
-172 308 -48 148 -63 228 -58 316 0 14 19 52 40 85 21 32 42 68 45 79 6 20 1
20 -709 20 -393 0 -715 -2 -715 -4 0 -4 163 -267 260 -421 103 -162 321 -515
380 -615 29 -49 88 -146 131 -215 90 -146 221 -360 338 -550 45 -74 94 -150
107 -169 13 -19 24 -39 24 -45 0 -7 -28 -27 -62 -45 -35 -18 -81 -42 -102 -54
-27 -16 -40 -18 -43 -10 -2 7 -14 24 -25 38 -20 26 -66 97 -288 450 -59 94
-159 262 -222 375 -63 113 -132 232 -152 265 -21 33 -101 166 -178 295 -77
129 -173 287 -214 350 -298 462 -362 565 -356 567 4 1 422 4 929 5 507 2 924
5 927 8 3 3 -8 45 -25 92 -16 48 -32 117 -36 153 -4 41 -10 65 -18 65 -16 0
-88 -52 -158 -115 l-57 -52 -128 -6 c-70 -2 -130 -2 -135 2 -11 11 93 131 170
196 37 32 125 96 195 142 l127 84 6 57 c37 308 175 583 415 822 176 175 324
265 578 350 173 58 287 73 507 67 238 -7 395 -42 597 -133 398 -178 698 -555
804 -1007 l18 -79 71 -35 c38 -20 98 -56 133 -81 l62 -46 -24 -25 c-12 -14
-40 -52 -60 -83 l-37 -57 -61 40 c-34 21 -64 39 -68 39 -3 0 -11 -50 -18 -110
-9 -83 -17 -120 -34 -148 -33 -54 -122 -171 -130 -172 -19 -1 -16 50 8 167 32
151 41 331 25 456 -16 121 -74 324 -120 423 -55 116 -139 232 -246 340 -196
197 -396 305 -678 366 -139 30 -379 30 -550 -1 -271 -48 -556 -206 -729 -403
-166 -189 -280 -411 -324 -632 -8 -39 -17 -132 -20 -206 -7 -147 9 -300 45
-416 14 -47 17 -74 10 -110 -4 -27 -12 -89 -18 -139 -9 -75 -18 -105 -56 -180
l-45 -90 40 -140 c53 -184 95 -272 163 -340 71 -70 125 -104 257 -160 75 -31
122 -45 153 -45 59 0 77 -18 77 -78 0 -26 18 -118 39 -205 76 -306 186 -444
397 -496 48 -11 90 -23 93 -26 3 -3 -10 -20 -28 -38 -19 -18 -31 -26 -27 -19
10 18 1 15 -40 -13 -46 -31 -78 -28 -182 21 -164 76 -273 248 -338 533 -23
103 -44 145 -64 125 -5 -5 -41 -88 -80 -184 -158 -386 -195 -472 -282 -645
-160 -320 -151 -308 -293 -395 -83 -52 -514 -280 -670 -356 -60 -29 -137 -68
-170 -87 -92 -51 -325 -172 -595 -309 -135 -69 -288 -149 -340 -180 -52 -30
-131 -69 -175 -87 -44 -19 -111 -49 -150 -69 l-70 -35 60 -14 c33 -7 105 -29
160 -48 55 -19 200 -64 323 -100 123 -36 252 -76 286 -89 35 -13 94 -33 132
-44 212 -63 467 -159 458 -173 -3 -6 -55 -7 -128 -3 -152 8 -336 -3 -336 -20
0 -63 464 -571 729 -798 175 -151 454 -341 626 -426 166 -83 242 -100 283 -64
99 87 467 585 691 935 31 49 84 132 118 185 35 53 82 129 105 167 70 118 208
326 269 405 120 157 180 205 656 523 211 140 422 286 470 323 98 76 363 295
363 300 0 1 -39 -15 -87 -38 -206 -95 -377 -137 -588 -145 -170 -6 -284 10
-389 54 -90 37 -233 126 -294 181 l-54 49 80 99 c45 54 129 158 189 231 59 73
171 210 248 305 77 95 169 207 205 248 37 41 111 129 165 195 55 66 161 190
235 275 75 85 185 214 245 285 60 72 204 242 319 379 116 137 246 292 289 345
44 53 108 129 143 168 36 40 103 119 150 175 153 186 162 195 192 201 25 5 31
13 41 51 20 80 198 304 428 537 112 113 203 210 203 215 0 4 -21 -12 -47 -37
-27 -25 -97 -89 -158 -141 -144 -125 -190 -175 -319 -345 -120 -158 -129 -168
-151 -159 -32 12 -16 56 43 124 32 37 89 108 127 157 38 50 161 181 273 293
112 112 201 206 198 209 -3 4 -39 -25 -79 -63 -40 -38 -110 -102 -155 -142
-45 -40 -142 -142 -216 -225 -178 -203 -263 -290 -278 -285 -31 10 -18 48 34
105 248 275 413 472 402 482 -6 6 -13 -1 -250 -259 -209 -228 -261 -275 -280
-260 -22 19 -8 48 60 120 117 126 200 230 231 291 15 31 -70 -54 -302 -301
-49 -52 -53 -54 -69 -38 -23 23 -16 38 86 168 93 119 91 149 -4 49 -85 -89
-204 -230 -228 -269 -26 -43 -213 -269 -368 -445 -69 -78 -170 -195 -224 -261
-100 -119 -119 -142 -276 -329 -46 -55 -136 -158 -199 -229 -64 -71 -152 -171
-196 -222 -192 -223 -337 -387 -436 -489 -58 -60 -157 -175 -221 -255 -63 -80
-146 -179 -184 -220 -74 -80 -243 -272 -334 -380 -30 -35 -90 -103 -132 -149
-43 -47 -78 -93 -78 -103 0 -21 -265 -342 -286 -346 -9 -2 -24 4 -35 14 -10 9
-19 12 -19 6 0 -34 -188 -279 -326 -424 -37 -39 -52 -61 -48 -73 4 -10 -4 -28
-23 -48 -17 -18 -58 -68 -93 -112 -75 -97 -168 -195 -184 -195 -16 1 -46 25
-46 37 0 6 7 17 17 24 15 13 137 158 237 282 21 26 43 46 50 44 6 -2 18 8 27
22 9 14 72 89 139 166 68 77 142 166 166 198 23 31 79 95 125 141 75 78 139
157 212 266 18 28 33 40 43 36 9 -3 17 1 21 12 3 9 20 35 38 57 17 22 77 108
132 190 92 138 118 168 308 355 114 113 233 239 264 280 30 41 72 93 91 115
20 22 86 105 146 185 60 80 163 201 229 270 66 69 166 181 223 250 188 229
266 322 331 394 35 39 124 145 198 236 73 91 174 210 223 265 50 55 143 165
207 244 64 79 143 174 176 210 77 86 107 139 123 214 18 85 17 121 -6 208 -24
92 -24 86 3 95 20 6 379 174 562 264 44 21 112 52 150 69 39 16 167 75 285
131 118 56 278 131 355 166 77 35 205 97 285 138 80 40 154 74 164 75 10 0 42
-19 71 -44z m-688 0 c25 -17 58 -98 48 -115 -4 -6 -43 -29 -87 -50 l-79 -38
-14 22 c-33 51 -38 84 -18 124 20 38 71 72 108 72 11 0 30 -7 42 -15z m-313
-163 c20 -18 46 -72 46 -95 0 -16 -57 -49 -124 -71 -48 -16 -49 -16 -72 5 -54
50 -34 136 38 169 47 22 81 19 112 -8z m-313 -161 c21 -21 29 -39 29 -65 0
-43 -25 -64 -105 -91 l-57 -20 -29 33 c-30 34 -36 69 -18 105 36 71 127 90
180 38z m-2526 -90 c137 -28 305 -96 401 -162 140 -96 271 -234 347 -364 52
-89 125 -268 148 -359 20 -82 38 -330 21 -291 -8 17 -10 13 -17 -24 -4 -27
-10 -39 -15 -31 -11 18 -30 3 -30 -25 0 -13 -3 -26 -7 -28 -5 -3 -8 81 -8 186
-1 223 -7 255 -85 429 -58 127 -73 150 -58 87 6 -25 8 -105 5 -184 -4 -112
-10 -158 -31 -230 -31 -104 -69 -189 -120 -269 -20 -31 -36 -58 -36 -60 0 -2
18 0 39 4 21 4 46 3 54 -2 18 -10 22 -4 31 37 4 17 17 43 30 59 l23 29 6 -58
c7 -66 65 -193 161 -355 68 -114 68 -120 -6 -247 -59 -101 -104 -160 -230
-295 -95 -102 -134 -128 -190 -128 -25 0 -29 -3 -18 -10 8 -5 26 -10 38 -10
15 0 22 -5 19 -12 -6 -19 -124 -13 -236 11 -52 12 -96 20 -97 18 -2 -1 58 -24
132 -51 74 -27 133 -50 132 -52 -3 -2 -51 7 -174 33 -39 8 -79 14 -89 12 -16
-3 -73 -96 -75 -121 0 -4 22 15 50 42 41 42 55 50 87 50 20 0 33 -4 28 -8 -6
-4 -32 -25 -59 -47 -52 -41 -89 -108 -100 -180 l-5 -40 30 55 c40 73 84 118
144 146 49 24 115 32 115 15 0 -5 -17 -11 -37 -15 -21 -3 -67 -25 -103 -48
-80 -54 -99 -89 -143 -266 -18 -72 -41 -140 -50 -149 -29 -31 -74 -87 -84
-106 -7 -14 -13 -1 -27 60 -22 91 -28 84 -45 -53 -10 -85 -12 -90 -48 -121
-21 -17 -39 -30 -39 -30 -1 1 -7 48 -13 105 -6 57 -16 124 -23 150 l-12 47
-12 -65 c-7 -36 -15 -109 -19 -162 -8 -98 -8 -98 -34 -98 -52 0 -60 16 -76
150 -8 69 -15 128 -15 133 0 4 -4 7 -9 7 -9 0 -26 -83 -36 -182 -4 -32 -9 -58
-11 -58 -3 0 -15 7 -29 16 -30 20 -44 61 -52 154 -7 90 -18 117 -28 72 -3 -18
-11 -30 -16 -26 -5 3 -9 -19 -9 -50 0 -59 -7 -67 -33 -38 -11 12 -17 49 -22
137 -7 131 -19 203 -43 250 -14 27 -14 29 0 17 24 -19 65 -119 81 -197 18 -84
21 -65 6 42 -15 106 -60 212 -110 257 -45 41 -83 46 -184 21 -78 -19 -120 -19
-183 0 -62 19 -208 115 -248 165 l-29 35 46 -40 c67 -58 184 -122 258 -141 68
-17 121 -14 193 12 96 34 142 13 225 -99 24 -33 43 -57 43 -54 0 2 -7 23 -15
46 -20 58 -71 129 -108 152 l-32 19 31 0 c24 0 40 -9 63 -35 37 -42 41 -32 8
17 l-24 34 29 13 c43 19 33 30 -14 16 -209 -61 -344 -76 -431 -47 -136 46
-301 173 -340 261 -11 26 -22 41 -24 34 -6 -16 33 -164 58 -223 39 -90 173
-192 332 -251 l52 -19 -52 3 c-71 5 -163 52 -243 124 -51 47 -71 74 -101 139
-45 98 -79 198 -79 233 0 14 19 69 41 121 41 95 41 95 35 186 l-7 92 57 108
c105 199 123 238 136 307 7 40 18 67 25 67 7 0 24 -22 38 -50 28 -54 48 -70
94 -70 l30 0 -59 113 c-80 153 -109 252 -119 402 -5 66 -5 147 -1 180 4 33 6
62 4 64 -2 2 -28 -47 -59 -110 -74 -153 -99 -272 -92 -446 3 -68 3 -123 1
-123 -1 0 -8 27 -15 60 -16 82 -34 78 -25 -5 4 -36 3 -89 -1 -118 l-7 -52 -8
35 c-18 82 -20 244 -4 340 22 130 47 203 121 355 71 147 141 241 263 357 255
239 679 347 1057 269z m2211 -65 c38 -38 44 -74 17 -98 -10 -9 -47 -28 -82
-44 -71 -31 -83 -28 -114 24 -16 27 -17 37 -7 67 16 50 62 85 112 85 32 0 47
-7 74 -34z m-169 -912 c8 -21 21 -5 -212 -265 -110 -123 -222 -251 -250 -284
-27 -33 -97 -114 -155 -180 -58 -66 -134 -156 -170 -200 -35 -44 -130 -153
-210 -243 -140 -157 -192 -217 -413 -477 -56 -65 -133 -155 -172 -198 -71 -79
-146 -166 -335 -387 -58 -68 -152 -178 -210 -244 -58 -67 -150 -175 -205 -241
-55 -66 -131 -156 -170 -200 -119 -135 -145 -168 -145 -186 0 -9 -27 -48 -59
-87 -33 -39 -84 -104 -114 -144 -30 -40 -66 -84 -81 -97 -26 -25 -27 -25 -56
-7 -30 17 -30 17 -30 -7 0 -27 -68 -122 -170 -237 -124 -141 -200 -238 -200
-255 0 -10 -21 -41 -47 -70 -27 -28 -88 -100 -136 -159 -49 -59 -95 -110 -103
-113 -17 -6 -54 28 -54 50 0 8 10 22 21 33 28 25 165 186 213 249 20 28 48 52
60 55 13 3 65 54 121 120 55 63 126 147 160 185 68 80 130 165 130 180 1 6 24
34 53 64 29 30 83 96 121 145 80 105 114 140 133 134 7 -3 18 3 23 13 10 18
183 223 435 517 69 80 199 234 290 342 91 108 222 259 292 335 69 77 144 161
165 187 108 131 264 311 328 378 74 77 221 248 406 470 128 155 256 303 374
434 50 55 117 132 150 171 33 40 88 104 123 144 34 39 62 76 62 81 0 17 30 11
37 -6z m87 -70 c4 -10 -28 -51 -99 -127 -58 -62 -151 -168 -208 -236 -56 -69
-148 -177 -205 -240 -56 -64 -191 -222 -300 -351 -108 -129 -235 -275 -280
-325 -46 -49 -127 -142 -180 -205 -54 -63 -171 -198 -262 -301 -91 -102 -204
-232 -252 -290 -48 -57 -148 -176 -223 -264 -75 -88 -185 -218 -243 -289 -59
-71 -156 -188 -217 -260 -146 -174 -177 -215 -171 -224 10 -17 -266 -352 -290
-352 -6 0 -23 9 -38 21 l-27 21 53 57 c30 31 81 92 113 136 63 84 142 168 153
161 4 -2 68 73 142 166 74 94 167 207 205 253 39 45 133 158 210 251 76 93
183 216 235 274 53 58 116 130 141 160 66 83 192 230 299 350 169 190 415 474
456 525 21 28 112 134 200 235 89 102 194 226 233 275 40 50 154 181 254 293
100 112 200 225 222 252 41 50 68 62 79 34z m86 -68 c0 -18 -42 -68 -155 -186
-85 -88 -203 -220 -261 -293 -59 -73 -169 -202 -243 -287 -75 -85 -167 -193
-206 -240 -93 -114 -287 -340 -351 -410 -176 -191 -872 -1013 -1147 -1355 -53
-66 -131 -164 -174 -217 -43 -53 -84 -97 -90 -97 -16 -1 -17 -13 -3 -27 12
-12 -20 -62 -114 -173 -39 -46 -92 -109 -119 -140 -26 -31 -51 -57 -55 -59 -4
-1 -21 11 -37 28 l-28 29 79 83 c43 46 108 121 144 168 36 47 75 90 87 95 12
6 57 57 100 113 158 205 209 269 287 363 45 53 106 127 136 164 64 79 180 219
262 314 32 36 104 122 161 191 57 69 155 182 218 251 103 113 220 248 394 453
32 39 104 123 160 186 99 113 213 249 289 343 21 27 82 97 134 155 52 59 128
148 167 197 101 126 334 375 351 375 8 0 14 -10 14 -24z m84 -54 c3 -5 -31
-44 -75 -88 -44 -43 -115 -119 -157 -169 -41 -49 -101 -119 -133 -155 -32 -36
-147 -173 -257 -305 -308 -371 -452 -540 -652 -769 -175 -198 -301 -346 -340
-396 -19 -25 -87 -106 -150 -180 -64 -74 -165 -195 -225 -269 -61 -74 -137
-167 -170 -207 -186 -225 -342 -422 -412 -519 l-51 -73 49 -48 c27 -26 49 -52
49 -57 0 -26 -268 -347 -290 -347 -3 0 -24 15 -46 33 -21 18 -50 41 -63 50
-24 16 -25 16 -52 -31 -15 -26 -76 -101 -136 -167 -59 -66 -136 -152 -169
-190 l-62 -70 34 -40 c19 -21 32 -45 30 -52 -7 -17 -218 -272 -252 -305 l-29
-27 -58 52 -58 52 73 91 c151 188 212 254 230 248 10 -3 18 -1 18 4 0 6 51 67
113 136 232 262 257 292 276 331 10 22 54 79 96 125 42 47 104 120 137 163 43
56 64 76 76 73 12 -4 21 3 31 25 12 28 87 129 233 319 24 30 88 111 143 179
55 68 111 137 125 155 39 49 275 330 370 441 47 55 101 120 120 145 19 25 63
78 99 118 37 41 102 116 146 167 44 52 141 164 215 250 136 158 489 573 648
764 381 456 502 581 526 543z m-1389 -92 c-4 -28 -9 -49 -12 -46 -3 2 -2 28 2
56 4 28 9 49 12 46 3 -2 2 -28 -2 -56z m-18 -97 c-3 -10 -5 -4 -5 12 0 17 2
24 5 18 2 -7 2 -21 0 -30z m2153 -225 c0 -4 -27 -44 -60 -90 -32 -46 -107
-162 -165 -258 -59 -96 -131 -213 -160 -260 -29 -47 -93 -150 -143 -230 -129
-207 -245 -392 -336 -533 -43 -67 -101 -162 -129 -212 -27 -49 -82 -137 -122
-195 -39 -58 -97 -148 -127 -201 -65 -109 -66 -110 -133 -137 -45 -18 -124
-53 -308 -136 l-57 -26 16 33 c9 17 40 61 69 97 28 36 67 87 85 114 19 28 63
89 99 136 64 83 164 240 308 485 64 107 173 280 288 455 22 34 81 127 132 208
50 81 108 174 129 207 21 33 73 119 116 190 l78 130 -215 6 c-119 4 -217 8
-220 10 -4 5 124 201 139 212 13 9 716 5 716 -5z m-5428 -430 c-21 -29 -51
-75 -67 -103 -16 -27 -51 -83 -77 -123 -27 -39 -52 -82 -57 -94 -7 -20 -10
-18 -36 28 -15 27 -47 78 -71 114 -52 78 -57 117 -19 173 33 48 56 54 243 56
l123 1 -39 -52z m4638 -98 c0 -8 -29 -59 -65 -114 -36 -54 -65 -102 -65 -107
0 -17 -19 -9 -25 10 -3 11 -27 53 -54 93 -93 142 -93 144 -75 159 15 12 16 11
10 -8 -4 -13 -2 -24 6 -29 7 -4 10 -4 6 1 -8 8 97 65 120 65 6 0 12 4 12 8 0
5 10 14 23 20 20 10 27 6 65 -36 23 -25 42 -53 42 -62z m-4176 -595 l5 -160
89 2 89 2 -29 -77 c-16 -42 -35 -90 -43 -107 -36 -81 -93 -316 -107 -445 -5
-44 -67 342 -68 417 0 50 -8 56 -96 73 -91 18 -92 19 -66 82 36 89 61 164 123
383 33 116 62 217 66 225 10 22 31 -211 37 -395z m3555 318 c-5 -21 -34 -137
-64 -257 -43 -170 -52 -222 -43 -228 7 -5 50 -7 96 -6 45 2 82 2 82 1 0 -2
-42 -76 -93 -165 -52 -90 -125 -230 -163 -311 -38 -81 -70 -141 -72 -132 -6
29 47 353 75 454 l6 24 -97 -7 -97 -7 56 112 c56 111 140 261 220 394 23 39
54 91 69 118 15 26 28 47 30 47 2 0 0 -17 -5 -37z m-1504 7 c-10 -11 -20 -18
-23 -15 -7 6 18 35 31 35 5 0 2 -9 -8 -20z m36 -244 c-12 -19 -31 -67 -42
-106 -18 -66 -54 -150 -64 -150 -9 0 77 236 97 266 30 43 36 35 9 -10z m-897
-120 c21 -73 22 -206 1 -206 -12 0 -15 19 -15 114 0 63 -3 121 -6 130 -3 9 -4
16 -1 16 3 0 13 -24 21 -54z m-2258 -41 c12 -17 44 -70 71 -120 l50 -90 -13
-85 c-20 -125 -29 -581 -15 -715 14 -134 45 -308 70 -399 l19 -67 -27 -10
c-14 -5 -59 -24 -98 -41 -40 -17 -75 -29 -78 -26 -13 12 -58 184 -80 303 -54
295 -59 740 -12 1015 14 80 36 182 49 228 20 73 24 80 33 60 6 -13 20 -37 31
-53z m5531 -8 c15 -33 59 -214 79 -322 22 -123 30 -481 14 -627 -46 -429 -196
-864 -408 -1185 -165 -249 -421 -521 -648 -689 -270 -200 -673 -388 -898 -419
l-48 -7 29 44 c16 24 49 78 73 120 36 64 50 80 82 93 21 8 43 15 49 15 18 0
250 100 319 138 212 116 393 263 582 473 155 172 267 332 377 541 115 218 225
593 261 888 21 174 9 500 -25 644 l-13 59 41 63 c25 37 47 61 55 59 16 -6 51
68 52 108 0 33 13 35 27 4z m-3761 -984 c-8 -15 -15 -25 -16 -21 0 12 23 58
27 54 3 -2 -2 -17 -11 -33z m-40 -90 c-8 -15 -15 -25 -16 -21 0 12 23 58 27
54 3 -2 -2 -17 -11 -33z m420 -21 c70 -51 72 -58 32 -100 -20 -20 -60 -69 -89
-108 -30 -39 -80 -99 -112 -133 -56 -61 -58 -63 -82 -47 -13 9 -36 31 -51 51
l-26 35 28 38 c90 119 240 292 255 292 3 0 24 -13 45 -28z m-565 -25 c-10 -9
-11 -8 -5 6 3 10 9 15 12 12 3 -3 0 -11 -7 -18z m-546 -401 c-11 -7 -56 -34
-100 -58 -44 -25 -170 -96 -280 -158 -110 -62 -252 -138 -315 -170 -120 -60
-339 -176 -450 -240 -132 -75 -263 -142 -323 -165 -34 -13 -88 -35 -119 -49
-32 -14 -58 -21 -58 -16 0 6 4 10 8 10 5 0 33 15 63 33 30 18 89 47 131 64
131 55 188 84 333 168 77 45 174 98 215 118 41 20 104 55 140 78 36 23 124 70
195 104 72 34 179 90 238 124 60 33 109 61 111 61 1 0 47 25 101 55 55 30 107
55 115 55 10 0 9 -4 -5 -14z m1095 -226 c-6 -12 -34 -46 -61 -76 -41 -45 -124
-147 -269 -328 -13 -17 -28 -32 -32 -34 -5 -2 -8 -10 -8 -17 0 -18 -57 -89
-164 -205 -49 -52 -96 -110 -105 -128 l-17 -34 -19 29 c-10 15 -25 32 -33 37
-11 6 0 22 50 75 75 77 200 226 217 259 14 26 28 28 53 5 17 -15 18 -15 18 1
0 38 356 464 373 447 5 -5 4 -18 -3 -31z m66 -112 c-20 -29 -70 -93 -112 -143
-144 -171 -189 -226 -209 -256 -41 -62 -269 -328 -372 -436 -40 -41 -73 -78
-73 -83 0 -4 33 -33 74 -64 41 -31 82 -69 91 -83 l18 -26 -75 -71 c-40 -39
-98 -88 -128 -110 -45 -32 -58 -37 -80 -29 -14 4 -26 17 -28 28 -3 25 39 89
106 159 47 50 62 82 46 99 -10 10 -74 -45 -166 -139 -45 -46 -84 -84 -87 -84
-3 0 -13 4 -21 10 -20 13 -3 41 87 142 42 46 91 107 109 136 19 28 38 52 42
52 4 0 25 25 47 55 22 30 48 58 58 61 15 5 18 12 12 40 -7 41 4 59 110 179 75
85 141 169 147 187 3 8 10 8 24 0 18 -10 24 -7 44 21 13 18 92 112 175 211 82
98 159 190 170 204 37 49 29 -3 -9 -60z m-738 -75 c17 -13 32 -30 32 -37 0 -8
-19 -36 -43 -62 -24 -27 -89 -104 -146 -172 l-103 -122 -47 42 c-85 77 -85 74
0 169 41 46 107 118 148 161 83 87 72 86 159 21z m2718 -82 c-31 -60 -151
-261 -231 -386 -45 -71 -95 -152 -111 -180 -66 -116 -280 -459 -524 -840 -69
-108 -119 -191 -271 -453 -27 -45 -61 -101 -77 -125 -16 -23 -50 -78 -75 -122
-25 -44 -77 -124 -115 -177 l-69 -97 -70 102 c-39 56 -82 125 -96 152 -14 28
-52 86 -86 130 -34 43 -61 82 -61 85 0 14 46 99 85 158 l42 62 34 -43 c68 -87
160 -180 168 -171 8 8 193 296 315 489 27 44 95 150 149 235 55 85 135 212
178 282 78 126 148 233 316 483 48 72 115 157 148 190 90 90 319 253 358 255
4 0 1 -13 -7 -29z m-3151 -421 c11 -12 32 -28 46 -35 24 -13 27 -12 62 33 20
26 43 55 50 65 11 16 14 16 32 2 19 -14 18 -17 -42 -71 -35 -31 -63 -61 -63
-67 0 -7 36 -38 79 -70 44 -32 87 -67 97 -78 17 -19 17 -20 -7 -36 -28 -19
-87 -78 -177 -176 -63 -69 -84 -79 -90 -39 -2 16 17 47 62 102 65 78 126 166
126 182 0 25 -37 -4 -136 -108 -107 -111 -140 -132 -151 -98 -2 7 33 56 78
110 86 103 128 176 106 183 -6 2 -61 -48 -122 -112 -107 -114 -136 -134 -149
-101 -7 18 -6 20 77 118 102 120 125 166 83 166 -7 0 -42 -30 -77 -67 -65 -69
-138 -133 -151 -133 -14 0 -8 30 12 70 11 21 19 48 17 59 -1 14 23 46 73 99
l75 78 35 -27 c19 -15 44 -37 55 -49z m287 -77 c-32 -44 -82 -89 -82 -73 0 15
79 100 93 100 4 0 -1 -12 -11 -27z m132 -50 c3 -4 -21 -35 -54 -68 l-61 -62
26 -31 26 -31 -83 -83 c-46 -46 -103 -105 -127 -131 -42 -47 -73 -58 -79 -27
-1 8 36 62 83 120 46 58 92 121 102 140 18 35 26 45 103 133 43 47 51 53 64
40z m1003 -49 c3 -9 -6 -68 -20 -133 -15 -64 -29 -134 -33 -156 -11 -72 -46
-194 -59 -205 -9 -7 -18 -5 -34 7 -22 18 -22 18 -6 122 12 81 57 265 90 369 6
18 55 15 62 -4z m-320 -59 c34 -34 35 -38 31 -95 -3 -49 -10 -66 -32 -89 -36
-37 -76 -45 -126 -25 -52 21 -80 61 -80 114 0 82 47 129 129 130 36 0 49 -6
78 -35z m-1396 -146 c175 -152 529 -479 529 -489 0 -14 -35 -70 -43 -70 -10 0
-145 122 -327 294 -63 60 -163 149 -221 199 l-106 90 31 28 c17 16 34 29 37
29 3 0 48 -37 100 -81z m1320 -348 c33 -33 39 -45 39 -82 0 -74 -57 -139 -122
-139 -34 0 -85 35 -103 70 -49 95 5 189 109 190 31 0 45 -7 77 -39z"/>
<path d="M8884 8889 c-22 -11 -44 -48 -44 -75 0 -24 56 -74 82 -74 34 0 71 43
71 80 0 54 -62 92 -109 69z"/>
<path d="M8657 8778 c-39 -31 -42 -107 -4 -133 29 -21 80 -19 100 3 9 10 20
32 23 50 12 59 -72 115 -119 80z"/>
<path d="M8415 8655 c-73 -72 28 -178 109 -114 20 16 26 29 26 58 0 74 -83
109 -135 56z"/>
<path d="M8171 8554 c-49 -62 -6 -152 66 -141 52 9 73 32 73 83 0 34 -5 47
-26 63 -38 30 -87 28 -113 -5z"/>
<path d="M7944 8435 c-47 -47 -8 -125 63 -125 47 0 87 40 79 78 -16 67 -96 93
-142 47z"/>
<path d="M7733 8355 c-56 -24 -59 -96 -4 -132 44 -30 85 -29 116 2 44 43 24
104 -41 131 -39 16 -31 17 -71 -1z"/>
<path d="M7504 8242 c-17 -11 -34 -48 -34 -75 0 -47 76 -90 119 -68 32 17 53
65 42 94 -18 46 -90 74 -127 49z"/>
<path d="M5058 8565 c-4 -11 -10 -40 -13 -65 -21 -140 -78 -452 -90 -497 -12
-40 -20 -53 -35 -53 -10 0 -21 -3 -23 -7 -7 -13 48 -259 92 -410 22 -78 43
-172 47 -208 4 -36 10 -62 15 -58 4 4 17 42 29 83 47 166 116 361 166 473 40
90 49 117 36 113 -9 -2 -53 -14 -97 -26 -43 -12 -84 -24 -90 -26 -7 -3 -10 94
-11 303 -1 287 -11 428 -26 378z"/>
<path d="M4257 8277 c-17 -26 -49 -132 -67 -225 -16 -79 -8 -255 16 -332 42
-139 126 -261 229 -330 41 -28 80 -50 87 -50 7 0 -15 28 -48 63 -109 111 -184
248 -230 423 -23 88 -26 112 -22 219 4 96 10 134 30 188 14 37 24 67 23 67 -2
0 -10 -10 -18 -23z"/>
<path d="M5831 8279 c-1 -3 9 -32 20 -65 33 -92 37 -264 9 -374 -39 -157 -153
-357 -253 -446 -40 -36 -46 -44 -27 -39 33 9 111 59 137 87 57 61 139 191 167
263 28 74 30 89 30 205 0 98 -5 143 -23 210 -20 75 -58 175 -60 159z"/>
<path d="M5910 8210 c0 -8 9 -48 20 -89 38 -144 22 -317 -45 -482 -34 -84
-112 -213 -165 -272 -38 -43 -41 -49 -20 -42 74 22 151 89 211 183 78 123 110
359 71 522 -19 80 -72 212 -72 180z"/>
<path d="M4166 8167 c-49 -82 -59 -125 -63 -267 -4 -101 -1 -152 11 -203 32
-139 117 -281 203 -340 39 -27 103 -52 103 -40 0 3 -22 29 -48 57 -87 92 -179
269 -212 409 -32 134 -21 307 25 397 24 45 9 36 -19 -13z"/>
<path d="M5817 8089 c4 -53 0 -100 -12 -155 -52 -236 -146 -403 -285 -507 -73
-56 -70 -60 9 -12 118 71 224 213 271 360 26 81 39 296 22 355 -8 28 -9 20 -5
-41z"/>
<path d="M4266 8044 c-14 -145 22 -294 107 -443 43 -75 94 -128 183 -190 l49
-34 -67 69 c-86 90 -138 172 -186 297 -48 124 -61 179 -71 294 l-7 88 -8 -81z"/>
<path d="M5464 7187 c-16 -7 -66 -33 -110 -59 -43 -26 -92 -50 -109 -54 -44
-10 -51 -16 -27 -25 31 -12 73 6 196 83 104 65 119 81 50 55z"/>
<path d="M4581 7186 c23 -23 156 -105 199 -123 58 -24 173 -32 185 -13 4 6
-18 10 -58 10 -60 0 -75 5 -192 65 -116 59 -146 73 -134 61z"/>
<path d="M4465 7160 c22 -10 59 -26 83 -36 23 -9 47 -23 53 -31 10 -11 -73 21
-123 48 -41 21 -215 1 -293 -35 -105 -48 -167 -133 -181 -249 -3 -32 -9 -56
-12 -53 -2 3 -13 38 -23 78 -18 69 -18 70 -15 23 6 -70 105 -264 167 -326 55
-56 135 -89 236 -96 86 -7 166 7 273 48 100 38 148 80 195 171 21 40 68 105
103 143 36 39 77 89 92 112 l27 42 15 -32 c8 -18 47 -66 85 -107 39 -41 89
-110 112 -152 69 -126 130 -169 297 -209 238 -56 399 9 499 203 22 42 43 75
46 72 13 -7 62 143 52 159 -3 6 -17 -14 -31 -44 l-25 -54 -8 38 c-13 57 -55
132 -96 172 -64 62 -116 87 -194 93 -73 5 -83 12 -46 30 45 23 -66 1 -156 -30
-49 -16 -90 -28 -93 -25 -3 2 10 14 28 26 18 11 28 21 23 21 -6 0 -71 -36
-145 -81 l-135 -80 -77 3 c-73 3 -76 2 -61 -14 13 -15 14 -18 2 -18 -25 0 -89
50 -89 69 0 6 -18 -8 -39 -32 -22 -23 -54 -51 -72 -61 l-32 -19 25 34 c43 58
46 66 15 47 -37 -25 -117 -23 -169 3 -22 11 -68 42 -102 68 -78 61 -88 66
-170 85 -84 20 -91 19 -41 -4z"/>
<path d="M6194 6932 c3 -5 1 -12 -6 -14 -9 -3 -8 -9 5 -22 16 -17 17 -16 17 8
0 14 -5 28 -12 32 -6 4 -8 3 -4 -4z"/>
<path d="M5022 6673 c-32 -48 -67 -115 -102 -195 -34 -79 -52 -98 -30 -33 7
20 10 38 7 41 -8 8 -65 -159 -83 -244 -17 -81 -17 -83 2 -109 32 -43 69 -66
93 -58 50 16 121 104 121 150 0 31 17 14 39 -40 29 -71 69 -105 123 -105 32 0
46 6 69 31 37 40 37 70 -1 194 -16 54 -30 103 -30 109 0 16 -48 113 -49 100
-1 -6 6 -31 14 -54 25 -71 17 -60 -36 50 -53 110 -99 190 -111 190 -4 0 -15
-12 -26 -27z"/>
<path d="M3940 6444 c58 -58 190 -143 259 -166 72 -24 121 -23 233 6 88 23
223 75 215 82 -2 2 -48 -8 -103 -21 -135 -35 -251 -42 -332 -21 -93 23 -204
78 -255 125 -60 55 -72 52 -17 -5z"/>
</g>
</svg>
